<svg version="1.1" xmlns="http://www.w3.org/2000/svg">
    <defs>
        <symbol id="logo" viewBox="0 0 260 204">
            <path d="M102.082299,93.8728427 C100.430217,93.9836744 99.2206077,94.1030606 98.4513586,94.1903612 C96.7466404,98.1984752 94.2394304,102.489078 90.58161,106.400744 C83.0175642,114.489393 77.974867,111.244173 75.2623839,108.56829 C72.9281031,106.262476 70.2481535,101.012378 81.1265527,93.6923332 C83.3876331,92.167324 90.9191454,89.7273092 90.9191454,89.7273092 C90.9191454,89.7273092 97.5844524,77.5394354 94.375833,76.4780289 C90.7808779,75.2905551 80.7524171,84.3064097 72.7532353,100.064838 C63.9244485,117.458077 61.3949665,134.95705 60.9191637,138.918007 C60.6344953,141.410889 59.821157,143.273434 56.567804,141.036753 C53.3144509,138.800073 49.7642294,134.111178 50.0122976,130.817158 C50.4515003,125.00179 57.1249407,109.312494 61.5495008,100.772443 C65.9740609,92.232391 75.2705173,76.4048285 76.3888574,74.1681483 C77.5071975,71.9314681 78.3205357,69.7557882 78.3205357,69.7557882 C78.6946713,68.678115 78.7312716,66.7139031 80.1180133,66.7139031 C81.504755,66.7139031 83.6072344,68.3771799 83.6072344,71.866401 C83.6072344,77.0514324 80.0488795,82.813934 80.0488795,82.813934 C80.0488795,82.813934 87.9097938,71.15473 95.0956373,71.15473 C101.081807,71.15473 101.895145,77.1164995 101.899212,79.5931145 C101.899212,81.0414261 101.597067,84.3443367 100.450447,88.4714196 C101.425102,88.4372044 102.39992,88.4345723 103.373377,88.4633934 C106.83657,78.1776735 115.677225,67.9339105 122.228602,67.9339105 C124.871951,67.9339105 130.056982,70.7805944 130.056982,76.6772968 C130.056982,79.3578798 128.044977,86.7194558 119.479,92.2316088 C121.493213,93.4283568 121.580356,94.3703846 121.281063,94.6276722 C120.630682,95.1851414 115.989539,93.7489275 109.918343,93.6122587 C109.608925,95.0234362 109.422591,96.4153238 109.422591,97.7224243 C109.422591,104.225064 113.237147,103.468659 114.25382,103.468659 C115.270493,103.468659 124.786551,102.02905 132.399397,87.9826986 C132.534579,87.7285566 132.894441,87.0951534 133.400564,86.2494325 C136.774009,80.2974411 139.838647,74.9911424 140.451445,73.7655458 C141.569786,71.5288656 142.383124,69.3531858 142.383124,69.3531858 C142.757259,68.2755126 142.789793,66.3113007 144.180601,66.3113007 C145.57141,66.3113007 147.669822,67.9379772 147.669822,71.4434651 C147.669822,76.6284965 144.111468,82.3909981 144.111468,82.3909981 C144.111468,82.3909981 151.972382,70.7317941 159.158225,70.7317941 C165.160662,70.7317941 165.969933,76.6976303 165.969933,79.1701786 C165.969933,82.4926654 164.379857,95.5752113 154.652331,105.977808 C147.088286,114.066457 142.045588,110.821237 139.333105,108.145354 C136.998824,105.83954 134.270075,100.516241 145.197274,93.2693973 C148.418094,91.1181176 154.989867,89.3206401 154.989867,89.3206401 C154.989867,89.3206401 161.655174,77.1327662 158.446554,76.0713598 C154.855666,74.8513524 144.823139,83.8834738 136.83209,99.662236 C128.003303,117.055475 125.473821,134.554447 124.998018,138.515405 C124.71335,141.008286 123.900012,142.870831 120.646659,140.634151 C117.393306,138.397471 113.839018,133.708576 114.087086,130.414556 C114.40557,126.19759 118.002205,116.788615 121.642367,108.678589 C119.265463,109.392803 116.782106,109.767964 114.249753,109.767964 C103.997625,109.772031 101.895145,101.382446 101.895145,96.6040842 C101.895145,95.7144063 101.959587,94.8012555 102.082299,93.8728427 Z M116.189538,90.7541487 C116.662812,89.6947973 117.366271,88.4221261 118.214777,87.0473596 C119.991921,84.1640755 125.738156,74.1518815 123.501476,72.4601379 C121.622665,71.036796 117.657641,75.9696925 115.469761,79.9835168 C114.612223,81.5576941 112.621327,85.2607269 111.157127,89.3736138 C112.166229,89.5815566 113.169237,89.824218 114.164353,90.1014448 C114.910313,90.3201177 115.583177,90.5382992 116.189538,90.7541487 Z M140.687313,104.570732 L140.69138,104.570732 C144.383936,106.892813 152.078116,95.8802131 151.431512,96.1160812 C150.017713,96.6307773 148.636551,97.2310462 147.295687,97.9135588 C143.399797,99.7435699 138.617368,103.269391 140.687313,104.570732 Z M165.156595,96.185215 C165.156595,84.0339414 177.169601,67.5150413 185.490052,67.5150413 C188.133401,67.5150413 193.318432,70.3617252 193.318432,76.2584276 C193.318432,79.0563112 191.126486,86.9538257 181.577895,92.5251928 C177.307869,95.0180746 178.499409,91.4515863 181.476227,86.6284904 C183.253371,83.7452063 188.999606,73.7330123 186.762926,72.037202 C184.884115,70.6138601 180.919091,75.5467566 178.731211,79.5605809 C177.295669,82.1957969 172.684041,90.796849 172.684041,97.3035551 C172.684041,103.810261 176.498597,103.04979 177.51527,103.04979 C178.531943,103.04979 186.156989,103.326325 193.782035,92.7813943 C200.886545,82.9562682 201.968285,71.8420008 199.068734,62.4845442 C198.320463,60.0689295 200.390408,61.1628695 201.358281,61.8745405 C202.326154,62.5862115 210,67.6207753 210,78.2958399 C210,96.6976181 192.309893,109.357228 177.519337,109.357228 C167.259074,109.349095 165.156595,100.963577 165.156595,96.185215 Z M135.559216,122.809843 C151.285111,110.406434 173.71698,111.829776 179.76415,114.436526 C182.562034,115.656533 184.70518,119.023753 185.30705,120.394228 C186.933727,124.119318 185.416851,125.62806 182.867036,124.46092 C175.35179,121.044899 155.213535,120.910698 138.922369,126.16893 C128.369306,129.572751 132.313996,125.367792 135.559216,122.809843 Z M89.1664014,97.1124206 L89.1542014,97.1124206 C90.7117441,96.4332831 93.163959,95.4898108 91.8422843,95.591478 C90.5206096,95.6931453 86.0797827,97.0066866 83.2330988,98.3364947 C79.3372086,100.166506 74.5913798,103.647594 76.6247255,104.993668 C79.5730767,106.941613 84.6686408,100.219373 85.8439146,98.8082309 C86.3197175,98.2551608 87.6088587,97.791558 89.1664014,97.1124206 Z" fill-rule="nonzero" transform="translate(130.000000, 101.519302) rotate(-9.000000) translate(-130.000000, -101.519302) " />
        </symbol>
        <symbol id="single-check" viewBox="0 -5 24 24">
            <path d="M20.05634,0.33324 C20.50121,-0.11108 21.22189,-0.11108 21.66676,0.33324 C22.11108,0.77811 22.11108,1.49879 21.66676,1.94366 L9.5126,14.097829 C9.06773,14.542145 8.34704,14.542145 7.902171,14.097829 L0.305818,6.50148 C-0.112527,6.05252 -0.100183,5.35289 0.333739,4.91897 C0.767661,4.48505 1.467285,4.4727 1.916245,4.89105 L8.707384,11.682189 L20.05634,0.33324 Z" />
        </symbol>
        <symbol id="trash" viewBox="0 0 22 22">
            <path d="M16.43273,22 L2.780924,22 C1.943181,22 1.264056,21.320875 1.264056,20.483132 L1.264056,4.80883 L0.758434,4.80883 C0.339562,4.80883 0,4.46927 0,4.0504 C0,3.63153 0.339562,3.29197 0.758434,3.29197 L5.096675,3.29197 C5.845212,1.31089 7.741865,0 9.85964,0 C11.97741,0 13.87407,1.31089 14.6226,3.29197 L18.96085,3.29197 C19.37972,3.29197 19.71928,3.63153 19.71928,4.0504 C19.71928,4.46927 19.37972,4.80883 18.96085,4.80883 L17.9496,4.80883 L17.9496,20.483132 C17.9496,21.320875 17.27048,22 16.43273,22 Z M9.85964,1.52229 C8.47929,1.52229 7.280965,2.02285 6.689387,3.29197 L13.02989,3.29197 C12.43832,2.02791 11.23999,1.52229 9.85964,1.52229 Z M16.43273,20.483132 L16.43273,4.80883 L2.780924,4.80883 L2.780924,20.483132 L4.803414,20.483132 L4.803414,11.88755 C4.803414,11.46868 5.142977,11.12911 5.561848,11.12911 C5.98072,11.12911 6.320282,11.46868 6.320282,11.88755 L6.320282,20.483132 L8.84839,20.483132 L8.84839,8.85381 C8.84839,8.43494 9.18796,8.09538 9.60683,8.09538 C10.0257,8.09538 10.36526,8.43494 10.36526,8.85381 L10.36526,20.483132 L12.89338,20.483132 L12.89338,11.88755 C12.89338,11.46868 13.23294,11.12911 13.65181,11.12911 C14.07068,11.12911 14.41024,11.46868 14.41024,11.88755 L14.41024,20.483132 L16.43273,20.483132 Z"></path>
        </symbol>
        <symbol id="edit" viewBox="0 0 22 22">
            <path d="M16.5,22 L1.5,22 C0.671573,22 0,21.328427 0,20.5 L0,1.5 C0,0.67157 0.671573,0 1.5,0 L10,0 L10,1.5 L1.5,1.5 L1.5,20.5 L16.5,20.5 L16.5,11 L18,11 L18,20.5 C18,21.328427 17.32843,22 16.5,22 Z M19.06,1.87 L19.06,1.875 C19.64491,2.46064 19.64491,3.40936 19.06,3.995 C19.06,3.995 10.865,12.455 10.365,12.585 L8.865,12.96 C8.35349,13.088369 7.812136,12.93869 7.439225,12.56577 C7.066314,12.19286 6.916631,11.65151 7.045,11.14 L7.42,9.64 C7.545,9.135 15.88,0.81 15.88,0.81 C16.46564,0.22509 17.41436,0.22509 18,0.81 L19.06,1.87 Z M10.96,9.97 L18,2.935 L16.94,1.875 L9.9,8.915 L9.935,8.945 L10.96,9.97 Z" />
        </symbol>
        <symbol id="order" viewBox="0 0 22 22">
            <path d="M9.22311,5.25519 C9.21384,4.9953 9.30838,4.7424 9.48587,4.55232 L13.75565,0.28253 C13.98657,0.05311 14.31699,-0.04552 14.63588,0.01978 C14.95305,-0.03432 15.27621,0.07422 15.49641,0.30881 L19.43775,4.57859 C19.61221,4.77361 19.70194,5.03 19.68715,5.29125 C19.67237,5.55249 19.55428,5.79712 19.35892,5.9712 C18.94413,6.33889 18.31363,6.31575 17.9269,5.91865 L15.29934,3.14657 L15.29934,18.392992 C15.29934,18.937178 14.85819,19.378327 14.31401,19.378327 C13.76982,19.378327 13.32867,18.937178 13.32867,18.392992 L13.32867,3.36335 L10.82592,5.95149 C10.65783,6.13684 10.41925,6.24255 10.16903,6.24255 C9.91881,6.24255 9.68024,6.13684 9.51214,5.95149 C9.3273,5.76689 9.22334,5.51643 9.22311,5.25519 Z M5.117548,21.979612 C4.784567,22.0448719 4.441542,21.933016 4.21104,21.684011 L0.2697,17.414226 C0.101954,17.235991 0.006029,17.002028 0.000375,16.757336 C-0.007191,16.485606 0.100127,16.223272 0.295975,16.034757 C0.480091,15.857587 0.728436,15.763065 0.983758,15.772981 C1.239081,15.782896 1.479347,15.896393 1.649169,16.087308 L4.125644,18.859384 L4.125644,3.94141 C4.125644,3.39723 4.566794,2.95608 5.110979,2.95608 C5.655165,2.95608 6.096314,3.39723 6.096314,3.94141 L6.096314,18.734575 L8.78299,16.231824 C9.20052,15.847014 9.84347,15.847014 10.261,16.231824 C10.64522,16.616522 10.64522,17.239733 10.261,17.624431 L5.991212,21.729993 C5.758596,21.951524 5.432086,22.0448123 5.117548,21.979612 Z" />
        </symbol>
        <symbol id="exit" viewBox="0 0 22 22">
            <path d="M0,18.376471 L0,0.77647 C0,0.34764 0.347638,0 0.776471,0 L13.2,0 C13.62883,0 13.97647,0.34764 13.97647,0.77647 L13.97647,4.65882 C13.97647,5.08766 13.62883,5.43529 13.2,5.43529 C12.77117,5.43529 12.42353,5.08766 12.42353,4.65882 L12.42353,1.55294 L1.552941,1.55294 L1.552941,17.6 L12.42353,17.6 L12.42353,13.976471 C12.42353,13.547638 12.77117,13.2 13.2,13.2 C13.62883,13.2 13.97647,13.547638 13.97647,13.976471 L13.97647,18.376471 C13.97647,18.805303 13.62883,19.152941 13.2,19.152941 L0.776471,19.152941 C0.347638,19.152941 0,18.805303 0,18.376471 Z M5.952941,9.57647 C5.952941,9.14764 6.300579,8.8 6.729412,8.8 L19.03906,8.8 L16.59576,6.81224 C16.2627,6.54207 16.21172,6.05306 16.48188,5.72 C16.75205,5.38694 17.24106,5.33595 17.57412,5.60612 L21.79294,9.04329 C21.87621,9.2098 21.94546,9.38295 22,9.56094 C21.92301,9.77091 21.82411,9.97217 21.70494,10.16141 L17.56376,13.526118 C17.40467,13.655576 17.20057,13.716337 16.99658,13.694967 C16.79259,13.673596 16.60551,13.571855 16.47671,13.412235 C16.34696,13.252299 16.28606,13.047367 16.30742,12.84253 C16.32878,12.637693 16.43064,12.449731 16.59059,12.32 L19.03388,10.33224 L6.729412,10.33224 C6.308537,10.33238 5.964164,9.9972 5.952941,9.57647 Z" />
        </symbol>
        <symbol id="arrow-right">
            <path d="M12.6,40.6c-0.6,0.6-1.7,0.6-2.3,0c-0.6-0.6-0.6-1.6,0-2.3l17.5-17.5L10.3,3.8c-0.6-0.6-0.6-1.7,0-2.3
			c0.6-0.6,1.6-0.6,2.3,0l19.6,19.3L12.6,40.6z"/>
        </symbol>
        <symbol id="arrow-left">
            <path d="M29.4,40.6c0.6,0.6,1.7,0.6,2.3,0c0.6-0.6,0.6-1.6,0-2.3L14.2,20.7L31.7,3.8c0.6-0.6,0.6-1.7,0-2.3
			c-0.6-0.6-1.6-0.6-2.3,0L9.8,20.7L29.4,40.6z"/>
        </symbol>
        <symbol id="close" viewBox="0 0 42 42">
            <path d="M24.1,22L40.5,5.3c0.7-0.8,0.7-2-0.1-2.7s-2-0.8-2.7,0L21.4,19.4L4.3,2.6C3.8,2.1,3.1,1.9,2.4,2.1
			S1.3,2.8,1.1,3.4s0.1,1.4,0.6,1.9l17,16.7l-17,16.7c-0.7,0.8-0.7,2,0,2.7c0.7,0.7,2,0.8,2.7,0.1l17-16.7l16.3,16.7
			c0.8,0.7,2,0.7,2.7,0c0.8-0.7,0.8-2,0.1-2.7L24.1,22z"/>
        </symbol>
        <symbol id="heart-bordered" viewBox="0 0 42 42">
            <path d="M21,1A20,20,0,1,0,41,21,20,20,0,0,0,21,1Zm0,37.27A17.27,17.27,0,1,1,38.27,21,17.27,17.27,0,0,1,21,38.27Z"/>
            <path d="M24.37,14.86A6.59,6.59,0,0,0,21,16.27a6.6,6.6,0,0,0-3.37-1.41,5.06,5.06,0,0,0-4.37,2.36A4.76,4.76,0,0,0,13,21.89c.72,1.42,5.2,5.19,7.09,6.75a1.36,1.36,0,0,0,1.73,0c1.89-1.56,6.38-5.33,7.09-6.76a4.79,4.79,0,0,0-.23-4.68A5,5,0,0,0,24.37,14.86Zm2.15,5.8A44.5,44.5,0,0,1,21,25.82a45.15,45.15,0,0,1-5.52-5.15,2.05,2.05,0,0,1,.1-2,2.33,2.33,0,0,1,2.05-1.06A6.3,6.3,0,0,1,20.06,19a1.36,1.36,0,0,0,1.89,0,6.3,6.3,0,0,1,2.42-1.41,2.27,2.27,0,0,1,2,1.05A2.07,2.07,0,0,1,26.52,20.67Z"/>
        </symbol>
        <symbol id="error" viewBox="0 0 42 42">
            <path id="Announcement" d="M21,1C10,1,1,10,1,21s9,20,20,20s20-9,20-20l0,0C41,10,32,1,21,1z M21,38.1c-9.5,0-17.1-7.7-17.1-17.1
                S11.5,3.9,21,3.9S38.1,11.5,38.1,21S30.5,38.1,21,38.1L21,38.1z M21.5,9.1c-0.8,0-1.4,0.6-1.4,1.4v13.3c0,0.8,0.6,1.4,1.4,1.4
                s1.4-0.6,1.4-1.4V10.5C22.9,9.7,22.3,9.1,21.5,9.1z M21.5,27.7c-0.8,0-1.4,0.6-1.4,1.4s0.6,1.4,1.4,1.4s1.4-0.6,1.4-1.4
                S22.3,27.7,21.5,27.7z"/>
        </symbol>
        <symbol id="smile" viewBox="0 0 42 42">
            <circle id="Oval" cx="13.7" cy="15.5" r="1.8"/>
            <circle id="Oval_1_" cx="28.3" cy="15.5" r="1.8"/>
            <path id="Shape" d="M21,1C10,1,1,10,1,21s9,20,20,20s20-9,20-20S32,1,21,1L21,1z M21,38.3c-9.5,0-17.3-7.7-17.3-17.3
                S11.5,3.7,21,3.7S38.3,11.5,38.3,21S30.5,38.3,21,38.3L21,38.3z"/>
            <path id="Shape_1_" d="M21,32.8c-4.6-0.1-8.8-2.6-11.2-6.5c-0.4-0.6-0.2-1.5,0.4-1.9c0.6-0.4,1.5-0.2,1.9,0.4
                c1.8,3.2,5.2,5.3,8.8,5.3s7.1-2,8.8-5.3c0.3-0.4,0.7-0.7,1.2-0.6c0.5,0,0.9,0.3,1.2,0.7c0.2,0.4,0.2,1-0.1,1.4
                C29.8,30.2,25.6,32.7,21,32.8z"/>
        </symbol>
        <symbol id="photo" viewBox="0 0 42 42">
            <path id="Photo" d="M21,13.7c-5,0-9.1,4.1-9.1,9.1s4.1,9.1,9.1,9.1s9.1-4.1,9.1-9.1C30.1,17.8,26,13.7,21,13.7z M21,29.2
	c-3.5,0-6.4-2.8-6.4-6.4s2.8-6.4,6.4-6.4s6.4,2.8,6.4,6.4S24.5,29.2,21,29.2L21,29.2z M38.3,11h-6.7l-2.8-4.2
	c-0.5-0.8-1.4-1.2-2.3-1.2H15.5c-0.9,0-1.8,0.5-2.3,1.2L10.4,11h-0.4v-0.9c0-1.5-1.2-2.7-2.7-2.7H6.5c-1.5,0-2.7,1.2-2.7,2.7V11
	C2.2,11,1,12.2,1,13.7v20c0,1.5,1.2,2.7,2.7,2.7h34.5c1.5,0,2.7-1.2,2.7-2.7v-20C41,12.2,39.8,11,38.3,11z M6.5,10.1h0.9V11H6.5
	V10.1z M38.3,33.7H3.7v-20h8.2l3.6-5.5h10.9l3.6,5.5h8.2V33.7z M33.3,19.2c0.8,0,1.4-0.6,1.4-1.4c0-0.8-0.6-1.4-1.4-1.4
	c-0.8,0-1.4,0.6-1.4,1.4C31.9,18.6,32.5,19.2,33.3,19.2z"/>
        </symbol>
        <symbol id="send" viewBox="0 0 42 42">
            <path id="Send" d="M37.9,18.4l-31-17C6,0.9,4.9,0.9,4,1.4C3.1,2,2.5,2.9,2.5,4v34c0,1.7,1.3,3,3,3c0.5,0,1-0.1,1.4-0.4l31-17
	c1.5-0.8,2-2.6,1.2-4.1C38.9,19.1,38.4,18.6,37.9,18.4z M5.5,38V23h13c0.8,0,1.5-0.7,1.5-1.5S19.3,20,18.5,20h-13V4l31,17L5.5,38z"
	/>
        </symbol>
        <symbol id="filter" viewBox="0 0 42 42">
            <path id="Filter" d="M2.4,9.1H5c0.8,2.8,3.7,4.4,6.5,3.6c1.7-0.5,3.1-1.9,3.6-3.6h24.5c0.8,0,1.4-0.6,1.4-1.4s-0.6-1.4-1.4-1.4H15.1
	c-0.8-2.8-3.7-4.4-6.5-3.6C6.9,3.1,5.5,4.5,5,6.2H2.4C1.6,6.2,1,6.9,1,7.7S1.6,9.1,2.4,9.1z M10,5.3c1.3,0,2.4,1.1,2.4,2.4
	S11.4,10,10,10S7.7,9,7.7,7.7S8.7,5.3,10,5.3z M39.6,19.6H25.9c-1-2.7-4.1-4-6.8-3c-1.4,0.5-2.4,1.6-3,3H2.4C1.6,19.6,1,20.2,1,21
	s0.6,1.4,1.4,1.4h13.4c0.5,2.8,3.3,4.7,6.1,4.2c2.1-0.4,3.8-2.1,4.2-4.2h13.4c0.8,0,1.4-0.6,1.4-1.4C41,20.2,40.4,19.6,39.6,19.6
	L39.6,19.6z M21,23.9c-1.3,0-2.4-1.1-2.4-2.4c0-1.3,1.1-2.4,2.4-2.4s2.4,1.1,2.4,2.4C23.4,22.8,22.3,23.9,21,23.9z M39.6,32.9H37
	c-0.8-2.8-3.7-4.4-6.5-3.6c-1.7,0.5-3.1,1.9-3.6,3.6H2.4c-0.8,0-1.4,0.6-1.4,1.4s0.6,1.4,1.4,1.4h24.5c0.8,2.8,3.7,4.4,6.5,3.6
	c1.7-0.5,3.1-1.9,3.6-3.6h2.6c0.8,0,1.4-0.6,1.4-1.4S40.4,32.9,39.6,32.9z M31.9,36.7c-1.3,0-2.4-1.1-2.4-2.4c0-1.3,1.1-2.4,2.4-2.4
	s2.4,1.1,2.4,2.4C34.3,35.6,33.3,36.7,31.9,36.7z"/>
        </symbol>
        <symbol id="dialog" viewBox="0 0 42 42">
            <path id="Dialog" d="M38.3,14.2h-8.2V6c0-1.5-1.2-2.7-2.7-2.7H3.7C2.2,3.3,1,4.5,1,6v14.5c0,1.5,1.2,2.7,2.7,2.7h0.5l-0.3,0.8
	c-0.6,1.4,0.1,3,1.5,3.5c0.3,0.1,0.7,0.2,1,0.2c0.5,0,0.9-0.1,1.3-0.3l4.1-2.3v6.3c0,1.5,1.2,2.7,2.7,2.7l0,0h12l7.6,4.2
	c0.4,0.2,0.9,0.3,1.3,0.3c1.5,0,2.7-1.2,2.7-2.7c0-0.3-0.1-0.7-0.2-1l-0.3-0.8h0.5c1.5,0,2.7-1.2,2.7-2.7l0,0V16.9
	C41,15.4,39.8,14.2,38.3,14.2z M11.9,16.9v5.2l-5.5,3l1.8-4.5H3.7V6h23.6v8.2H14.6C13.1,14.2,11.9,15.4,11.9,16.9z M38.3,31.5h-4.5
	l1.8,4.5l-8.2-4.5H14.6V16.9h23.6V31.5z M18.3,22.4h16.4c0.8,0,1.4-0.6,1.4-1.4s-0.6-1.4-1.4-1.4H18.3c-0.8,0-1.4,0.6-1.4,1.4
	S17.5,22.4,18.3,22.4z M18.3,27.8h16.4c0.8,0,1.4-0.6,1.4-1.4s-0.6-1.4-1.4-1.4H18.3c-0.8,0-1.4,0.6-1.4,1.4S17.5,27.8,18.3,27.8z"
	/>
        </symbol>
        <symbol id="my-questions" viewBox="0 0 42 42">
            <style type="text/css">
                .st0{fill:#FFFFFF;}
            </style>
            <title>My_questions</title>
            <desc>Created with Sketch.</desc>
            <g id="Page-1">
                <g id="My_questions">
                    <g id="Combined-Shape">
                        <path id="path-1_1_" d="M32.8,4.8c3,0,5.5,2.6,5.5,5.7v15.2c0,3.2-2.4,5.7-5.5,5.7H16.2l-6.1,5.7v-5.7H9.2c-3,0-5.5-2.6-5.5-5.7
                            V10.5c0-3.2,2.4-5.7,5.5-5.7H32.8L32.8,4.8z M32.8,2H9.2C4.7,2,1,5.8,1,10.5v15.2c0,4,2.6,7.5,6.4,8.4v3.1c0,1.1,0.6,2.2,1.6,2.6
                            c1,0.5,2.1,0.3,2.9-0.5l5.4-5h15.5c4.5,0,8.2-3.8,8.2-8.6V10.5C41,5.8,37.3,2,32.8,2L32.8,2z M16.4,15.2c0-0.6,0.2-1.2,0.6-1.9
                            c0.4-0.6,1-1.1,1.7-1.6c0.8-0.4,1.6-0.6,2.6-0.6c0.9,0,1.8,0.2,2.5,0.5c0.7,0.3,1.3,0.8,1.7,1.4c0.4,0.6,0.6,1.2,0.6,1.9
                            c0,0.5-0.1,1-0.3,1.4c-0.2,0.4-0.5,0.8-0.8,1.1s-0.9,0.8-1.7,1.5c-0.2,0.2-0.4,0.4-0.5,0.5c-0.1,0.2-0.2,0.3-0.3,0.4
                            c-0.1,0.1-0.1,0.3-0.2,0.4c0,0.1-0.1,0.3-0.2,0.7c-0.1,0.7-0.5,1-1.2,1c-0.3,0-0.6-0.1-0.8-0.3c-0.2-0.2-0.3-0.5-0.3-1
                            c0-0.5,0.1-1,0.3-1.4c0.2-0.4,0.4-0.7,0.7-1c0.3-0.3,0.7-0.7,1.1-1.1c0.4-0.4,0.7-0.6,0.9-0.8s0.3-0.4,0.5-0.6
                            c0.1-0.2,0.2-0.5,0.2-0.7c0-0.5-0.2-0.9-0.6-1.3c-0.4-0.4-0.9-0.5-1.5-0.5c-0.7,0-1.2,0.2-1.6,0.5c-0.3,0.4-0.6,0.9-0.9,1.6
                            c-0.2,0.7-0.6,1.1-1.2,1.1c-0.4,0-0.7-0.1-0.9-0.4C16.5,15.7,16.4,15.4,16.4,15.2z M21.1,25.7c-0.4,0-0.7-0.1-1-0.4
                            c-0.3-0.3-0.4-0.6-0.4-1.1c0-0.4,0.1-0.7,0.4-1c0.3-0.3,0.6-0.4,1-0.4c0.4,0,0.7,0.1,1,0.4c0.3,0.3,0.4,0.6,0.4,1
                            c0,0.5-0.1,0.8-0.4,1.1C21.8,25.6,21.5,25.7,21.1,25.7z"/>
                    </g>
                </g>
            </g>
        </symbol>
        <symbol id="time" viewBox="0 0 42 42">
            <path id="Time" d="M21,1C10,1,1,10,1,21s9,20,20,20s20-9,20-20C41,10,32,1,21,1z M21,38.3c-9.5,0-17.3-7.7-17.3-17.3
	S11.5,3.7,21,3.7S38.3,11.5,38.3,21l0,0C38.3,30.5,30.5,38.3,21,38.3z M30.1,20.1h-8.2v-10c0-0.8-0.6-1.4-1.4-1.4s-1.4,0.6-1.4,1.4
	v12.7h10.9c0.8,0,1.4-0.6,1.4-1.4S30.8,20.1,30.1,20.1z"/>
        </symbol>
        <symbol id="message" viewBox="0 0 42 42">
            <path id="Message" d="M32.8,5.5c3,0,5.5,2.4,5.5,5.5v14.5c0,3-2.4,5.5-5.5,5.5H16.2l-6.1,5.5V31H9.2c-3,0-5.5-2.4-5.5-5.5V11
	c0-3,2.4-5.5,5.5-5.5H32.8 M32.8,2.8H9.2C4.7,2.8,1,6.5,1,11v14.5c0,3.8,2.6,7.1,6.4,8v2.9c0,1.1,0.6,2,1.6,2.5
	c0.4,0.2,0.7,0.2,1.1,0.2c0.7,0,1.3-0.2,1.8-0.7l5.4-4.8h15.6c4.5,0,8.2-3.7,8.2-8.2V11C41,6.5,37.3,2.8,32.8,2.8L32.8,2.8z
	 M22.4,18.3c0,0.8-0.6,1.4-1.4,1.4s-1.4-0.6-1.4-1.4c0-0.8,0.6-1.4,1.4-1.4S22.4,17.5,22.4,18.3z M31.5,18.3c0,0.8-0.6,1.4-1.4,1.4
	c-0.8,0-1.4-0.6-1.4-1.4c0-0.8,0.6-1.4,1.4-1.4C30.8,16.9,31.5,17.5,31.5,18.3z M13.4,18.3c0,0.8-0.6,1.4-1.4,1.4s-1.4-0.6-1.4-1.4
	c0-0.8,0.6-1.4,1.4-1.4S13.4,17.5,13.4,18.3z"/>
        </symbol>
        <symbol id="check-circle" viewBox="0 0 42 42">
            <style type="text/css">
                .st0{fill:#FFFFFF;}
            </style>
            <g>
                <path id="path-1" class="st0" d="M21,0C9.4,0,0,9.4,0,21s9.4,21,21,21s21-9.4,21-21S32.6,0,21,0L21,0z M21,39.1
                    C11,39.1,2.9,31,2.9,21S11,2.9,21,2.9S39.1,11,39.1,21c0,4.8-1.9,9.4-5.3,12.8C30.4,37.2,25.8,39.1,21,39.1z M28.6,16.2l-9.5,9.5
                    L13.4,20c-0.6-0.5-1.4-0.5-2,0s-0.6,1.4,0,2l6.7,6.7c0.6,0.6,1.5,0.6,2,0l10.5-10.5c0.5-0.6,0.5-1.4,0-2S29.1,15.6,28.6,16.2z"/>
            </g>
            <title>Check-circle</title>
            <desc>Created with Sketch.</desc>
            <g id="Page-1">
                <g id="Check-circle">
                    <g id="Shape">
                        <path id="path-1_1_" d="M21,1C10,1,1,10,1,21s9,20,20,20s20-9,20-20S32,1,21,1L21,1z M21,38.3c-9.5,0-17.3-7.7-17.3-17.3
                            S11.5,3.7,21,3.7S38.3,11.5,38.3,21c0,4.6-1.8,9-5.1,12.2C30,36.5,25.6,38.3,21,38.3z M28.2,16.4l-9,9L13.8,20
                            c-0.5-0.5-1.4-0.5-1.9,0s-0.5,1.4,0,1.9l6.4,6.4c0.5,0.5,1.4,0.5,1.9,0l10-10c0.5-0.5,0.5-1.4,0-1.9
                            C29.6,15.9,28.8,15.9,28.2,16.4z"/>
                    </g>
                </g>
            </g>
        </symbol>
        <symbol id="heart" viewBox="0 0 42 42">
            <title>Artboard 1</title>
            <path d="M21,1C10,1,1,10,1,21s9,20,20,20s20-9,20-20S32,1,21,1z M21,38.3c-9.5,0-17.3-7.7-17.3-17.3S11.5,3.7,21,3.7
                S38.3,11.5,38.3,21l0,0C38.3,30.5,30.5,38.3,21,38.3z"/>
            <path d="M24.4,14.9C23.1,15,22,15.5,21,16.3c-1-0.8-2.1-1.3-3.4-1.4c-1.8,0-3.4,0.9-4.4,2.4c-0.9,1.4-1,3.2-0.3,4.7
                c0.7,1.4,5.2,5.2,7.1,6.8c0.5,0.4,1.2,0.4,1.7,0c1.9-1.6,6.4-5.3,7.1-6.8c0.7-1.5,0.7-3.3-0.2-4.7C27.8,15.7,26.1,14.8,24.4,14.9z"/>
        </symbol>
        <symbol id="back" viewBox="0 0 42 42">
            <defs>
                <style>.cls-1{fill:none;}.cls-2{clip-path:url(#clip-path);}.cls-3{isolation:isolate;}.cls-4{clip-path:url(#clip-path-2);}.cls-5{clip-path:url(#clip-path-3);}</style>
                    <clipPath id="clip-path">
                        <path class="cls-1" d="M8.59,23.78l9.54,9.54A2.22,2.22,0,0,1,15,36.46L1.65,23.13a2.22,2.22,0,0,1,0-3.14L15,6.65a2.22,2.22,0,0,1,3.14,3.14L8.59,19.33H38.78a2.22,2.22,0,0,1,0,4.44Z"/>
                    </clipPath>
                    <clipPath id="clip-path-2">
                        <rect class="cls-1" x="-10.11" y="-5.11" width="62.22" height="53.33"/>
                    </clipPath>
                    <clipPath id="clip-path-3">
                        <rect class="cls-1" x="1" y="6" width="40" height="31.11"/>
                    </clipPath>
            </defs>
            <title>Artboard 1</title>
            <g class="cls-2">
                <g class="cls-3">
                    <g class="cls-4">
                        <g class="cls-5">
                            <rect x="-10.11" y="-5.11" width="62.22" height="53.33"/>
                        </g>
                    </g>
                </g>
            </g>
        </symbol>
        <symbol id="alert" viewBox="0 0 42 42">
            <style type="text/css">
                .st0{fill:#FFFFFF;}
            </style>
            <title>Combined Shape</title>
            <desc>Created with Sketch.</desc>
            <g id="Page-1">
                <g id="Combined-Shape">
                    <path id="path-1_1_" d="M18.4,4.1c0.5-1,1.5-1.6,2.6-1.6s2.1,0.6,2.6,1.6l17,31c0.5,0.9,0.5,2.1-0.1,3c-0.5,0.9-1.5,1.5-2.6,1.5H4
                        c-1.1,0-2-0.6-2.6-1.5s-0.6-2-0.1-3L18.4,4.1z M38,36.5l-17-31l-17,31H38z M21.2,12.7c0.8,0,1.4,0.6,1.4,1.4v13.3
                        c0,0.8-0.6,1.4-1.4,1.4s-1.4-0.6-1.4-1.4V14.2C19.7,13.4,20.4,12.7,21.2,12.7z M21.2,34.2c-0.8,0-1.4-0.6-1.4-1.4
                        c0-0.8,0.6-1.4,1.4-1.4s1.4,0.6,1.4,1.4C22.6,33.5,21.9,34.2,21.2,34.2z"/>
                </g>
            </g>
        <symbol/>
        <symbol id="double-check" viewBox="0 0 42 42">
            <style type="text/css">
                .st0{fill:#FFFFFF;}
            </style>
            <title>Shape</title>
            <desc>Created with Sketch.</desc>
            <g id="Symbols">
                <g id="icon_x2F_outline_x2F_double-check-circle" transform="translate(-1.000000, -1.000000)">
                    <g id="Shape">
                        <path id="path-1_1_" d="M22,2C11,2,2,11,2,22s9,20,20,20s20-9,20-20S33,2,22,2L22,2z M22,39.3c-9.5,0-17.3-7.7-17.3-17.3
                            S12.5,4.7,22,4.7S39.3,12.5,39.3,22c0,4.6-1.8,9-5.1,12.2S26.6,39.3,22,39.3z M21.8,27l0.6,0.6c0.7,0.7,1.9,0.7,2.6,0l7.9-7.9
                            c0.5-0.5,0.5-1.4,0-1.9c-0.5-0.5-1.4-0.5-1.9,0L21.8,27z M16.5,25L13,21.5c-0.5-0.5-1.4-0.5-1.9,0s-0.5,1.4,0,1.9l4.5,4.5
                            c0.5,0.5,1.4,0.5,1.9,0l8.2-8.2c0.5-0.5,0.5-1.4,0-1.9s-1.4-0.5-1.9,0L16.5,25z"/>
                    </g>
                </g>
            </g>
        </symbol>
        <symbol id="add-question-disabled" viewBox="0 0 42 42">
            <style type="text/css">
                .st99{fill:#a1a1a1;}
                .st1{filter:url(#Adobe_OpacityMaskFilter);}
                .st2{fill:#FFFFFF;}
                .st3{mask:url(#mask-2);fill:#FFFFFF;}
            </style>
            <title>question</title>
            <desc>Created with Sketch.</desc>
            <g id="Page-1">
                <g id="question">
                    <g id="path-2">
                        <circle id="path-1_1_" class="st99" cx="21" cy="21" r="20"/>
                    </g>
                    <defs>
                        <filter id="Adobe_OpacityMaskFilter" filterUnits="userSpaceOnUse" x="15.3" y="15.5" width="11.2" height="11.2">
                            <feColorMatrix  type="matrix" values="1 0 0 0 0  0 1 0 0 0  0 0 1 0 0  0 0 0 1 0"/>
                        </filter>
                    </defs>
                    <mask maskUnits="userSpaceOnUse" x="15.3" y="15.5" width="11.2" height="11.2" id="mask-2">
                        <g class="st1">
                            <circle id="path-1" class="st2" cx="21" cy="21" r="20"/>
                        </g>
                    </mask>
                    <path id="path-4" class="st3" d="M26.1,20.7h-4.7V16c0-0.2-0.2-0.4-0.4-0.4c-0.2,0-0.4,0.2-0.4,0.4v4.7h-4.7
                        c-0.2,0-0.4,0.2-0.4,0.4s0.2,0.4,0.4,0.4h4.7v4.7c0,0.2,0.2,0.4,0.4,0.4c0.2,0,0.4-0.2,0.4-0.4v-4.7h4.7c0.2,0,0.4-0.2,0.4-0.4
                        S26.3,20.7,26.1,20.7z"/>
                </g>
            </g>
        </symbol>
        <symbol id="add-question" viewBox="0 0 42 42">
            <style type="text/css">
                .st0{fill:#9BDAD6;}
                .st1{filter:url(#Adobe_OpacityMaskFilter);}
                .st2{fill:#FFFFFF;}
                .st3{mask:url(#mask-2);fill:#FFFFFF;}
            </style>
            <title>question</title>
            <desc>Created with Sketch.</desc>
            <g id="Page-1">
                <g id="question">
                    <g id="path-2">
                        <circle id="path-1_1_" class="st0" cx="21" cy="21" r="20"/>
                    </g>
                    <defs>
                        <filter id="Adobe_OpacityMaskFilter" filterUnits="userSpaceOnUse" x="15.3" y="15.5" width="11.2" height="11.2">
                            <feColorMatrix  type="matrix" values="1 0 0 0 0  0 1 0 0 0  0 0 1 0 0  0 0 0 1 0"/>
                        </filter>
                    </defs>
                    <mask maskUnits="userSpaceOnUse" x="15.3" y="15.5" width="11.2" height="11.2" id="mask-2">
                        <g class="st1">
                            <circle id="path-1" class="st2" cx="21" cy="21" r="20"/>
                        </g>
                    </mask>
                    <path id="path-4" class="st3" d="M26.1,20.7h-4.7V16c0-0.2-0.2-0.4-0.4-0.4c-0.2,0-0.4,0.2-0.4,0.4v4.7h-4.7
                        c-0.2,0-0.4,0.2-0.4,0.4s0.2,0.4,0.4,0.4h4.7v4.7c0,0.2,0.2,0.4,0.4,0.4c0.2,0,0.4-0.2,0.4-0.4v-4.7h4.7c0.2,0,0.4-0.2,0.4-0.4
                        S26.3,20.7,26.1,20.7z"/>
                </g>
            </g>
        </symbol>
        <symbol id="question-timer" viewBox="0 0 42 42">
            <title>Close</title>
            <desc>Created with Sketch.</desc>
            <g id="_x37_.-Detalle-de-mi-pregunta">
                <g id="_x34_2-Mis-preguntas---Abiertas" transform="translate(-54.000000, -397.000000)">
                    <g id="_x30_1" transform="translate(28.000000, 312.000000)">
                        <g id="clock" transform="translate(26.000000, 85.000000)">
                            <g id="Shape_1_">
                                <path id="path-1_1_" d="M29.6,9.6c-6.3,0-11.4,5.1-11.4,11.4s5.1,11.4,11.4,11.4S41,27.3,41,21S35.9,9.6,29.6,9.6z M29.6,30.9
                                    c-5.5,0-9.9-4.4-9.9-9.9s4.4-9.9,9.9-9.9s9.9,4.4,9.9,9.9S35,30.9,29.6,30.9z M34.8,20.5h-4.7v-5.7c0-0.4-0.3-0.8-0.8-0.8
                                    c-0.4,0-0.8,0.3-0.8,0.8V22h6.2c0.4,0,0.8-0.3,0.8-0.8C35.5,20.8,35.2,20.5,34.8,20.5z M15,21.3c0.2,0.2,0.3,0.5,0.2,0.7
                                    c0,0.3-0.1,0.5-0.3,0.7l-4,3.3c-0.2,0.2-0.6,0.4-0.9,0.3c-0.3-0.1-0.6-0.3-0.7-0.7c-0.1-0.3,0.1-0.6,0.4-0.8l2.6-2.1H1.9
                                    c-0.5,0-0.9-0.4-0.9-0.8c0-0.5,0.4-0.8,0.9-0.8h10.3l-2.3-2.2c-0.2-0.2-0.3-0.5-0.2-0.8c0.1-0.3,0.3-0.5,0.7-0.6
                                    c0.3-0.1,0.7,0,0.9,0.2L15,21.3z"/>
                            </g>
                        </g>
                    </g>
                </g>
            </g>
        </symbol>
        <symbol id="answer-timer" viewBox="0 0 42 42">
            <title>Close</title>
            <desc>Created with Sketch.</desc>
            <g id="_x37_.-Detalle-de-mi-pregunta">
                <g id="_x34_2-Mis-preguntas---Abiertas" transform="translate(-85.000000, -897.000000)">
                    <g id="_x30_2" transform="translate(28.000000, 612.000000)">
                        <g id="Respuesta" transform="translate(57.000000, 229.500000)">
                            <g id="clock" transform="translate(0.000000, 55.500000)">
                                <g id="Shape">
                                    <path id="path-1_1_" d="M12.4,9.6C6.1,9.6,1,14.7,1,21s5.1,11.4,11.4,11.4S23.9,27.3,23.9,21S18.8,9.6,12.4,9.6z M12.4,30.9
                                        c-5.5,0-9.9-4.4-9.9-9.9s4.4-9.9,9.9-9.9s9.9,4.4,9.9,9.9S17.9,30.9,12.4,30.9z M17.7,20.5H13v-5.7c0-0.4-0.3-0.8-0.8-0.8
                                        c-0.4,0-0.8,0.3-0.8,0.8V22h6.2c0.4,0,0.8-0.3,0.8-0.8C18.4,20.8,18.1,20.5,17.7,20.5z M27,19.5l3.8-3.6
                                        c0.2-0.2,0.6-0.3,0.9-0.2c0.3,0.1,0.6,0.3,0.7,0.6s0,0.6-0.2,0.8l-2.3,2.2h10.3c0.5,0,0.9,0.4,0.9,0.8c0,0.5-0.4,0.8-0.9,0.8
                                        H29.7l2.6,2.1c0.3,0.2,0.4,0.5,0.4,0.8c-0.1,0.3-0.3,0.6-0.7,0.7c-0.3,0.1-0.7,0-0.9-0.3l-4-3.3c-0.2-0.2-0.3-0.5-0.3-0.7
                                        C26.7,20,26.8,19.7,27,19.5z"/>
                                </g>
                            </g>
                        </g>
                    </g>
                </g>
            </g>
        </symbol>
    </defs>
</svg>
